<?xml version="1.0" encoding="UTF-8"?>
<svg id="Layer_1" data-name="Layer 1" xmlns="http://www.w3.org/2000/svg" viewBox="0 0 643.98 230.41">
  <defs>
    <style>
      .cls-1 {
        fill: #c1272d;
      }

      .cls-2 {
        fill: #282882;
      }
    </style>
  </defs>
  <rect class="cls-2" x="87.57" y="72.96" width="23.18" height="85.42"/>
  <g>
    <path class="cls-2" d="M199.79,95.69c-3.29-5.88-7.83-10.94-13.61-15.19-5.78-4.25-12.48-7.53-20.09-9.84-7.61-2.31-15.76-3.46-24.44-3.46H63.19v1.37c2.79.32,5.17.69,7.13,1.13,1.97.44,4.07,1.08,6.31,1.95,3.47,1.37,5.8,2.5,6.99,3.39,1.19.9,1.79,2.28,1.79,4.15v72.01c0,1.87-.59,3.25-1.79,4.14-1.19.9-3.52,2.03-6.99,3.39-2.24.87-4.35,1.52-6.31,1.96-1.97.44-4.34.81-7.13,1.13v1.37h78.45c8.32,0,16.26-1.15,23.83-3.46,7.57-2.31,14.3-5.59,20.2-9.84,5.89-4.25,10.55-9.32,13.95-15.19,3.41-5.88,5.11-12.38,5.11-19.51s-1.65-13.63-4.94-19.51ZM105.22,153.58l-6.06-4.4-6.06,4.4,2.32-7.12-6.06-4.41h7.49l2.32-7.12,2.32,7.12h7.49l-6.06,4.41,2.32,7.12ZM102.9,116.63l2.32,7.12-6.06-4.4-6.06,4.4,2.32-7.12-6.06-4.41h7.49l2.32-7.12,2.32,7.12h7.49l-6.06,4.41ZM102.9,86.8l2.32,7.12-6.06-4.4-6.06,4.4,2.32-7.12-6.06-4.41h7.49l2.32-7.12,2.32,7.12h7.49l-6.06,4.41ZM168.21,143.15c-2.4,6.65-5.84,11.31-10.32,13.99-4.48,2.68-9.9,4.01-16.25,4.01h-28.67v-91.89h28.67c5.9,0,11.12,1.33,15.67,4.01,4.55,2.68,8.11,7.33,10.67,13.99,2.56,6.65,3.84,15.96,3.84,27.94s-1.2,21.29-3.6,27.95Z"/>
    <path class="cls-2" d="M204.73,161.83c2.79-.32,5.17-.7,7.13-1.13,1.97-.43,4.07-1.09,6.31-1.95,3.43-1.33,5.75-2.45,6.96-3.36,1.21-.91,1.82-2.31,1.82-4.18v-72c0-1.87-.61-3.27-1.82-4.18-1.21-.91-3.53-2.03-6.96-3.36-2.24-.91-4.34-1.58-6.31-1.99-1.97-.41-4.34-.78-7.13-1.1v-1.37h91.48c8.27,0,15.73.92,22.36,2.74,6.63,1.83,11.87,4.64,15.74,8.43,3.86,3.8,5.79,8.66,5.79,14.61s-1.93,10.81-5.79,14.61c-3.86,3.8-9.11,6.61-15.74,8.43-6.63,1.83-14.08,2.74-22.36,2.74h-12.69c5.35,1.92,10.95,3.23,16.8,3.94,5.85.71,11.63,1.06,17.35,1.06l17.49,28.46c.78,1.28,1.77,2.33,2.98,3.15,1.21.82,2.46,1.62,3.74,2.4,1.46.92,3.21,1.82,5.25,2.71,2.03.89,3.99,1.34,5.86,1.34h3.98v1.37h-46.63c-1.88-.78-3.66-2.05-5.35-3.81-1.69-1.76-3.63-4.45-5.83-8.06l-13.51-22.42c-1.19-1.92-2.41-3.77-3.67-5.55-1.26-1.78-2.53-3.31-3.81-4.59h-23.66v32.44c0,1.88.61,3.27,1.82,4.18,1.21.92,3.53,2.03,6.96,3.36,2.24.87,4.34,1.52,6.31,1.95,1.97.44,4.34.81,7.13,1.13v1.37h-72v-1.37ZM292.09,69.26h-37.58v47.45h37.58c5.21,0,9.49-2,12.82-6,3.34-4,5.01-9.91,5.01-17.73s-1.67-13.73-5.01-17.73c-3.34-4-7.61-6-12.82-6Z"/>
    <path class="cls-2" d="M365.19,161.83c2.79-.32,5.17-.7,7.13-1.13,1.97-.43,4.07-1.09,6.31-1.95,3.47-1.37,5.81-2.5,6.99-3.39,1.19-.89,1.78-2.27,1.78-4.15v-72c0-1.87-.59-3.26-1.78-4.15-1.19-.89-3.52-2.02-6.99-3.39-2.24-.87-4.34-1.52-6.31-1.95-1.97-.43-4.34-.81-7.13-1.13v-1.37h72v1.37c-2.79.32-5.17.7-7.13,1.13-1.97.44-4.07,1.09-6.31,1.95-3.47,1.37-5.81,2.5-6.99,3.39-1.19.89-1.78,2.27-1.78,4.15v72c0,1.88.59,3.26,1.78,4.15,1.19.89,3.52,2.02,6.99,3.39,2.24.87,4.34,1.52,6.31,1.95,1.97.44,4.34.81,7.13,1.13v1.37h-72v-1.37Z"/>
    <path class="cls-2" d="M445.42,161.83c2.79-.32,5.17-.7,7.13-1.13,1.97-.43,4.07-1.09,6.31-1.95,3.43-1.33,5.75-2.45,6.96-3.36,1.21-.91,1.82-2.31,1.82-4.18v-72c0-1.87-.61-3.27-1.82-4.18-1.21-.91-3.53-2.03-6.96-3.36-2.24-.91-4.34-1.58-6.31-1.99-1.97-.41-4.34-.78-7.13-1.1v-1.37h91.48c8.27,0,15.73.97,22.36,2.91,6.63,1.94,11.87,4.87,15.74,8.78,3.86,3.91,5.79,8.84,5.79,14.78s-1.93,10.87-5.79,14.78c-3.86,3.91-9.11,6.83-15.74,8.78-6.63,1.94-14.08,2.91-22.36,2.91h-41.69v31.06c0,1.88.61,3.27,1.82,4.18,1.21.92,3.53,2.03,6.96,3.36,2.24.87,4.34,1.52,6.31,1.95,1.97.44,4.34.81,7.13,1.13v1.37h-72v-1.37ZM532.79,69.26h-37.58v48.82h37.58c5.21,0,9.49-2.11,12.82-6.34,3.34-4.23,5.01-10.25,5.01-18.07s-1.67-13.84-5.01-18.07c-3.34-4.23-7.61-6.34-12.82-6.34Z"/>
  </g>
  <polygon class="cls-1" points="422.17 184.97 406.15 184.97 401.19 169.72 396.23 184.97 380.21 184.97 393.17 194.4 388.23 209.62 401.19 200.21 414.15 209.62 409.19 194.4 422.17 184.97"/>
</svg>